<svg width="175" height="46" viewBox="0 0 175 46" fill="none" xmlns="http://www.w3.org/2000/svg">
<path d="M62.4799 32.2636C65.9264 32.2636 67.7186 30.7668 67.7186 27.8914C67.7186 25.1539 65.7295 24.3071 62.992 23.7359C60.8453 23.2633 59.5849 22.9285 59.5849 21.8256C59.5849 20.959 60.3923 20.2894 61.9679 20.2894C63.4843 20.2894 64.9023 20.6833 66.0446 21.1954L67.2066 18.8517C65.828 18.1821 64.0752 17.7686 61.9482 17.7686C58.4623 17.7686 56.7095 19.4623 56.7095 22.0028C56.7095 24.76 58.7971 25.666 61.8497 26.2765C63.7995 26.6507 64.8039 27.0249 64.8039 28.1081C64.8039 29.2109 63.8979 29.7821 62.3421 29.7821C60.6878 29.7821 59.1319 29.3094 57.5761 28.561L56.5126 30.9637C58.4426 31.85 60.0182 32.2636 62.4799 32.2636Z" fill="white"/>
<path d="M74.138 32.2242C75.1818 32.2242 76.521 31.9681 77.3679 30.944V31.9878H80.0069V21.2348H77.3285V22.1604C76.4423 21.2938 75.1227 20.9787 74.0199 20.9787C71.0066 20.9787 68.9387 23.1451 68.9387 26.5916C68.9387 30.0381 70.9869 32.2242 74.138 32.2242ZM74.7289 29.7821C72.917 29.7821 71.7353 28.5807 71.7353 26.5916C71.7353 24.5631 72.9564 23.4208 74.6698 23.4208C75.7136 23.4208 76.8165 23.9132 77.3679 24.7994V28.3641C76.8165 29.3685 75.753 29.7821 74.7289 29.7821Z" fill="white"/>
<path d="M82.5309 31.9878H85.2487V17.0596H82.5309V31.9878Z" fill="white"/>
<path d="M98.3755 26.6113C98.3755 23.3027 96.544 20.9393 92.8414 20.9393C89.5525 20.9393 87.2483 23.1648 87.2483 26.5719C87.2483 29.9987 89.3753 32.2045 92.9793 32.2045C95.4411 32.2045 97.0166 31.3576 98.0014 29.9987L96.288 28.5413C95.5593 29.4473 94.4367 29.9199 93.1763 29.9199C91.4038 29.9199 90.3009 29.014 90.0055 27.4188H98.3559C98.3755 27.2021 98.3755 26.7885 98.3755 26.6113ZM92.8414 23.2042C94.7124 23.2042 95.5593 24.2677 95.7168 25.4493H90.0252C90.36 23.8935 91.4628 23.2042 92.8414 23.2042Z" fill="white"/>
<path d="M104.047 32.2636C106.982 32.2636 108.597 31.2001 108.597 28.7383C108.597 26.8476 107.179 26.0796 104.658 25.469C102.866 25.0358 102.334 24.8191 102.334 24.1298C102.334 23.4799 102.964 23.2042 103.91 23.2042C104.914 23.2042 106.293 23.5193 107.258 24.0313L108.144 21.865C106.982 21.412 105.682 21.0181 103.929 21.0181C101.349 21.0181 99.636 22.121 99.636 24.3268C99.636 26.3553 101.054 27.1627 103.457 27.6945C105.209 28.0884 105.84 28.3247 105.84 28.9943C105.84 29.7427 105.229 30.1366 103.969 30.1366C102.767 30.1366 101.408 29.8018 100.365 29.1716L99.4981 31.3182C100.798 31.9288 102.314 32.2636 104.047 32.2636Z" fill="white"/>
<path d="M117.281 18.0246H111.727V31.9878H114.504V28.2065H116.986C120.865 28.2065 122.933 26.5719 122.933 23.0466C122.933 19.7577 120.984 18.0246 117.281 18.0246ZM116.887 25.7644H114.504V20.5061H117.104C119.152 20.5061 120.058 21.3923 120.058 23.1254C120.058 24.7797 119.073 25.7644 116.887 25.7644Z" fill="white"/>
<path d="M129.949 32.2242C133.475 32.2242 135.838 30.0381 135.838 26.5916C135.838 23.2042 133.475 20.9984 129.949 20.9984C126.405 20.9984 124.021 23.2042 124.021 26.5916C124.021 30.0381 126.405 32.2242 129.949 32.2242ZM129.949 29.7427C128.098 29.7427 126.838 28.502 126.838 26.5916C126.838 24.7206 128.098 23.4799 129.949 23.4799C131.781 23.4799 133.041 24.7206 133.041 26.5916C133.041 28.502 131.781 29.7427 129.949 29.7427Z" fill="white"/>
<path d="M149.3 21.2348L147.331 27.596L144.751 21.1954H143.372L140.832 27.5566L138.902 21.2348H136.066L139.827 32.0469H141.344L144.042 25.5478L146.799 32.0469H148.315L152.077 21.2348H149.3Z" fill="white"/>
<path d="M163.421 26.6113C163.421 23.3027 161.589 20.9393 157.887 20.9393C154.598 20.9393 152.294 23.1648 152.294 26.5719C152.294 29.9987 154.421 32.2045 158.025 32.2045C160.486 32.2045 162.062 31.3576 163.047 29.9987L161.333 28.5413C160.605 29.4473 159.482 29.9199 158.222 29.9199C156.449 29.9199 155.346 29.014 155.051 27.4188H163.401C163.421 27.2021 163.421 26.7885 163.421 26.6113ZM157.887 23.2042C159.758 23.2042 160.605 24.2677 160.762 25.4493H155.07C155.405 23.8935 156.508 23.2042 157.887 23.2042Z" fill="white"/>
<path d="M165.193 31.9878H167.911V26.9067C167.911 24.8388 169.093 23.8344 170.609 23.8344C171.023 23.8344 171.456 23.9132 171.909 24.0313V21.0969C171.712 21.0181 171.436 20.9984 171.161 20.9984C169.703 20.9984 168.561 21.6483 167.813 22.6331V21.2348H165.193V31.9878Z" fill="white"/>
<path d="M26.8884 9.40758V1.17785C26.8884 0.645337 26.32 0.305619 25.851 0.557806L0.95459 13.9447V24.1938L26.1472 10.6477C26.6037 10.4022 26.8884 9.92585 26.8884 9.40758Z" fill="white"/>
<path d="M14.6949 35.6098V43.8395C14.6949 44.3721 15.2632 44.7118 15.7322 44.4596L40.6287 31.0727V20.8236L15.436 34.3697C14.9796 34.6152 14.6949 35.0915 14.6949 35.6098Z" fill="white"/>
<path d="M38.9173 19.9202L29.7244 24.8633L22.9218 20.9949C21.9591 20.4474 21.9761 19.0541 22.952 18.5304L28.8614 15.3586C29.2725 15.1379 29.7662 15.1353 30.1796 15.3515L38.9173 19.9202Z" fill="white"/>
<path d="M12.7309 29.6542L18.6368 26.4843C19.6115 25.9611 19.6299 24.5698 18.6693 24.0211L11.8421 20.1214L2.74841 25.0111L11.3992 29.6542C11.815 29.8774 12.315 29.8774 12.7309 29.6542Z" fill="white"/>
</svg>
